<?xml version="1.0" encoding="utf-8"?><svg width="210" height="80" viewBox="0 0 210 80" fill="none" xmlns="http://www.w3.org/2000/svg">
<path d="M141.185 57.99C140.565 57.92 139.956 57.87 139.336 57.7901C136.477 57.4002 133.807 56.4904 131.498 54.7209C128.779 52.6415 127.149 49.8723 126.469 46.5432C126.049 44.5037 125.929 42.4543 126.389 40.3949C126.503 39.8884 126.819 39.6351 127.339 39.6351H135.507C135.407 40.2549 135.267 40.8248 135.237 41.4046C135.107 43.8039 135.657 45.9733 137.476 47.6729C138.576 48.6926 139.906 49.2024 141.375 49.3624C143.005 49.5324 144.564 49.3424 146.014 48.5226C147.613 47.6129 148.633 46.2433 149.123 44.4938C149.723 42.3543 149.633 40.2449 148.603 38.2455C147.613 36.326 145.964 35.2663 143.874 34.8764C142.435 34.6065 141.005 34.6465 139.616 35.2163C139.386 35.3063 139.166 35.4363 138.896 35.5662V27.0786C138.896 26.7987 138.996 26.6987 139.236 26.6087C140.635 26.1089 142.095 25.9789 143.565 26.0289C145.614 26.0989 147.603 26.4488 149.503 27.2385C153.532 28.9181 156.211 31.8573 157.641 35.9661C158.141 37.4057 158.42 38.8953 158.52 40.4249C158.52 40.5349 158.56 40.6448 158.58 40.7448V42.9442L158.52 43.2641C158.34 44.3638 158.27 45.5035 157.961 46.5632C156.121 52.8714 151.852 56.5104 145.464 57.7401C144.804 57.87 144.124 57.92 143.455 58H141.185V57.99ZM104.795 57.99C104.136 57.88 103.476 57.8101 102.836 57.6701C99.5068 56.9203 97.4674 54.6909 97.0075 51.3119C96.9075 50.5321 96.8575 49.7423 96.8575 48.9525C96.8475 44.2138 96.8575 39.4651 96.8575 34.7265V34.2566H93.2885V27.3885C93.5485 27.3885 93.8084 27.4085 94.0683 27.3885C94.7781 27.3285 95.4979 27.3285 96.1777 27.1686C97.7573 26.7987 98.677 25.659 98.807 24.0394C98.857 23.3696 98.857 22.6898 98.877 22.01C101.036 22 103.216 22 105.395 22C105.395 23.4496 105.405 24.9092 105.415 26.3588V26.7887H110.484V34.2366H105.415V47.0031C105.415 47.353 105.425 47.7129 105.485 48.0628C105.725 49.5224 106.565 50.2422 108.054 50.3121C108.764 50.3421 109.444 50.1722 110.094 49.9122C110.204 49.8723 110.314 49.8223 110.474 49.7523C110.474 49.8923 110.494 50.0022 110.494 50.1022V56.8703C110.494 57.1102 110.414 57.2102 110.194 57.2902C109.244 57.6301 108.274 57.85 107.275 57.93C107.155 57.93 107.035 57.97 106.915 57.99H104.785H104.795ZM52.5398 57.99C52.5398 57.89 52.5199 57.7901 52.5199 57.6901V40.015H61.6573V57.5501C61.6573 57.6901 61.6673 57.84 61.6773 57.98H52.5398V57.99ZM52.01 30.4676C52.17 29.9378 52.2699 29.3879 52.4999 28.8881C53.3996 26.9586 55.489 25.7989 57.5485 26.0189C59.7978 26.2688 61.5473 27.7984 62.0372 29.9578C62.667 32.717 60.6576 35.5762 57.8384 35.9361C55.2991 36.256 53.0597 34.9064 52.2599 32.5571C52.15 32.2272 52.08 31.8773 52 31.5274V30.4577L52.01 30.4676Z" fill="black"/>
<path d="M121.911 26.7989V32.8773C122.55 32.8773 123.17 32.8773 123.79 32.8673C123.86 32.8673 123.94 32.7073 123.99 32.6073C124.44 31.6976 124.81 30.7279 125.34 29.8681C127.309 26.689 130.938 26.479 133.227 27.5087C135.227 28.4085 136.437 30.4379 136.237 32.5773C136.027 34.8467 134.477 36.6762 132.328 37.1961C129.738 37.8259 127.169 36.7162 126.009 34.4768C125.869 34.2069 125.77 33.907 125.63 33.5971C125.02 34.3269 124.56 35.1166 124.18 35.9564C123.18 38.1758 122.74 40.5251 122.72 42.9445C122.69 47.7831 122.7 52.6318 122.7 57.4704V57.9303H113.943V26.7989H121.911ZM65.2163 57.9403V27.3288H72.9742V32.8773C73.534 32.8773 74.0539 32.8873 74.5637 32.8673C74.6437 32.8673 74.7437 32.6973 74.7837 32.5873C75.1336 31.5576 75.6134 30.5979 76.2833 29.7481C77.6129 28.0686 79.3724 27.1888 81.4918 27.0089C82.8914 26.8889 84.261 27.0089 85.5907 27.4987C87.7401 28.3085 89.0397 29.9181 89.7995 32.0275C90.4093 33.737 90.5793 35.5065 90.5893 37.306V57.9403H81.9317V57.5304C81.9317 51.4121 81.9317 45.2938 81.9217 39.1755C81.9217 38.5157 81.8517 37.8359 81.6818 37.2061C81.2719 35.6665 80.2522 34.7267 78.6426 34.5268C77.163 34.3468 75.8234 34.6368 74.8337 35.8464C74.2538 36.5462 74.0239 37.386 73.9439 38.2758C73.9139 38.6057 73.9139 38.9456 73.9139 39.2755V57.9503H65.2263L65.2163 57.9403Z" fill="black"/>
</svg>
